HIERARCHY
ROOT joint_Root
{
	OFFSET 0.0 0.0 0.0
	CHANNELS 6 Xposition Yposition Zposition Zrotation Xrotation Yrotation 
	JOINT Hips
	{
		OFFSET -17.1583 93.1646 452.98
		CHANNELS 6 Xposition Yposition Zposition Zrotation Xrotation Yrotation 
		JOINT Spine
		{
			OFFSET 15.7357 0.0 0.0
			CHANNELS 6 Xposition Yposition Zposition Zrotation Xrotation Yrotation 
			JOINT Chest
			{
				OFFSET 8.98455 -0.406207 0.0
				CHANNELS 6 Xposition Yposition Zposition Zrotation Xrotation Yrotation 
				JOINT Neck
				{
					OFFSET 16.3773 0.0 0.0
					CHANNELS 6 Xposition Yposition Zposition Zrotation Xrotation Yrotation 
					JOINT Head
					{
						OFFSET 6.45672 0.0 0.0
						CHANNELS 6 Xposition Yposition Zposition Zrotation Xrotation Yrotation 
						End Site
						{
							OFFSET 0.0 0.0 0.0
						}
					}
				}
				JOINT Shoulder_L
				{
					OFFSET 12.9942 -0.242716 4.98039
					CHANNELS 6 Xposition Yposition Zposition Zrotation Xrotation Yrotation 
					JOINT UpperArm_L
					{
						OFFSET 5.34809 0.0 0.0
						CHANNELS 6 Xposition Yposition Zposition Zrotation Xrotation Yrotation 
						JOINT LowerArm_L
						{
							OFFSET 24.3286 1.87007e-05 0.0
							CHANNELS 6 Xposition Yposition Zposition Zrotation Xrotation Yrotation 
							JOINT Hand_L
							{
								OFFSET 22.2916 0.0 0.0
								CHANNELS 6 Xposition Yposition Zposition Zrotation Xrotation Yrotation 
								End Site
								{
									OFFSET 0.0 0.0 0.0
								}
							}
						}
					}
				}
				JOINT Shoulder_R
				{
					OFFSET 12.9945 -0.242716 -4.98039
					CHANNELS 6 Xposition Yposition Zposition Zrotation Xrotation Yrotation 
					JOINT UpperArm_R
					{
						OFFSET -5.34813 0.0 0.0
						CHANNELS 6 Xposition Yposition Zposition Zrotation Xrotation Yrotation 
						JOINT LowerArm_R
						{
							OFFSET -24.3289 0.000322201 0.0
							CHANNELS 6 Xposition Yposition Zposition Zrotation Xrotation Yrotation 
							JOINT Hand_R
							{
								OFFSET -22.2915 -0.000108084 0.0
								CHANNELS 6 Xposition Yposition Zposition Zrotation Xrotation Yrotation 
								End Site
								{
									OFFSET 0.0 0.0 0.0
								}
							}
						}
					}
				}
			}
		}
		JOINT UpperLeg_L
		{
			OFFSET -2.19248 -6.46944 0.0
			CHANNELS 6 Xposition Yposition Zposition Zrotation Xrotation Yrotation 
			JOINT LowerLeg_L
			{
				OFFSET 39.0811 0.0 -1.23785e-05
				CHANNELS 6 Xposition Yposition Zposition Zrotation Xrotation Yrotation 
				JOINT Foot_L
				{
					OFFSET 40.9854 0.0 -1.26872e-05
					CHANNELS 6 Xposition Yposition Zposition Zrotation Xrotation Yrotation 
					JOINT Toes_L
					{
						OFFSET 11.7543 0.0 0.0
						CHANNELS 6 Xposition Yposition Zposition Zrotation Xrotation Yrotation 
						End Site
						{
							OFFSET 0.0 0.0 0.0
						}
					}
				}
			}
		}
		JOINT UpperLeg_R
		{
			OFFSET -2.19251 6.46944 0.0
			CHANNELS 6 Xposition Yposition Zposition Zrotation Xrotation Yrotation 
			JOINT LowerLeg_R
			{
				OFFSET -39.0811 -0.00228153 -0.0401928
				CHANNELS 6 Xposition Yposition Zposition Zrotation Xrotation Yrotation 
				JOINT Foot_R
				{
					OFFSET -40.9854 0.0 0.0
					CHANNELS 6 Xposition Yposition Zposition Zrotation Xrotation Yrotation 
					JOINT Toes_R
					{
						OFFSET -11.7543 0.0 0.0
						CHANNELS 6 Xposition Yposition Zposition Zrotation Xrotation Yrotation 
						End Site
						{
							OFFSET 0.0 0.0 0.0
						}
					}
				}
			}
		}
	}
}
MOTION
Frames:	7
Frame Time:	0.0333333
0.000000 0.000000 0.000000 0.000000 0.000000 -0.000000 -2.089030 93.429700 -5.179200 87.878200 -0.261598 1.909650 15.735700 0.000005 -0.000001 95.690300 86.187900 -94.210100 8.984550 -0.406207 -0.000000 -0.186113 0.653098 2.959650 16.377300 -0.000001 -0.000001 -3.126140 0.450216 -1.720530 6.456720 -0.000001 -0.000000 1.587790 -0.513605 -0.581857 12.994200 -0.242716 4.980390 -92.075500 7.262890 -74.004200 5.348090 -0.000007 -0.000001 -73.084800 27.806900 -5.078540 24.328600 0.000019 0.000005 7.465720 26.098900 -16.589000 22.291600 -0.000001 0.000005 -13.168700 5.135810 4.265200 12.994500 -0.242716 -4.980390 89.172100 3.299610 -75.906600 -5.348130 -0.000001 -0.000004 -69.539500 29.141300 -11.094600 -24.328900 0.000322 -0.000009 -0.296268 -1.571070 -10.643700 -22.291500 -0.000108 -0.000004 -14.139100 5.014870 7.006580 -2.192480 -6.469440 -0.000000 -172.768000 -7.906900 -3.472420 39.081100 -0.000007 -0.000012 -0.007066 0.024770 15.921300 40.985400 -0.000006 -0.000013 -1.851790 13.238000 -66.291400 11.754300 -0.000000 0.000003 -0.000381 0.173812 -9.526740 -2.192510 6.469440 -0.000001 178.893000 5.393340 177.766000 -39.081100 -0.002282 -0.040193 0.047485 -0.186788 13.299200 -40.985400 0.000008 0.000006 -2.882120 4.750740 -66.209500 -11.754300 -0.000006 -0.000006 -0.008466 0.259464 -6.035030
0.000000 0.000000 0.000000 0.000000 0.000000 -0.000000 -2.036110 93.433800 -5.020280 87.887000 -0.207012 1.505430 15.735700 0.000005 -0.000001 95.853500 86.373400 -94.376300 8.984550 -0.406207 -0.000000 -0.557041 0.632311 2.956120 16.377300 -0.000001 -0.000001 -4.114710 0.383770 -1.442890 6.456720 -0.000001 -0.000000 0.217438 -0.355571 -0.757724 12.994200 -0.242716 4.980390 -92.062200 7.293580 -74.165100 5.348090 -0.000007 -0.000001 -70.228800 26.677500 -9.053660 24.328600 0.000019 0.000005 6.953580 28.838400 -14.191200 22.291600 -0.000001 0.000005 -20.791700 5.176820 3.266260 12.994500 -0.242716 -4.980390 89.353200 2.581390 -75.927700 -5.348130 -0.000001 -0.000004 -67.487100 27.214600 -14.769200 -24.328900 0.000322 -0.000009 -0.280734 -1.685190 -9.420770 -22.291500 -0.000108 -0.000004 -17.196200 4.981820 7.709180 -2.192480 -6.469440 -0.000000 -172.855000 -8.012130 -3.760140 39.081100 -0.000007 -0.000012 -0.006307 0.022192 15.864800 40.985400 -0.000006 -0.000013 -1.800410 13.314000 -66.379900 11.754300 -0.000000 0.000003 -0.000328 0.172971 -9.560890 -2.192510 6.469440 -0.000001 178.834000 5.685860 177.523000 -39.081100 -0.002282 -0.040193 0.046567 -0.184189 13.209700 -40.985400 0.000008 0.000006 -3.074870 5.043050 -66.253300 -11.754300 -0.000006 -0.000006 -0.008715 0.261440 -5.954300
0.000000 0.000000 0.000000 0.000000 0.000000 -0.000000 -1.980000 93.443900 -4.766560 87.943300 -0.052282 1.295530 15.735700 0.000005 -0.000001 96.147400 86.597400 -94.705200 8.984550 -0.406207 -0.000000 -1.006170 0.618227 2.888580 16.377300 -0.000001 -0.000001 -4.951280 0.236385 -1.223700 6.456720 -0.000001 -0.000000 -1.175340 -0.299335 -0.902286 12.994200 -0.242716 4.980390 -91.916300 6.790720 -74.200500 5.348090 -0.000007 -0.000001 -66.806000 23.860900 -14.110000 24.328600 0.000019 0.000005 6.329920 31.280100 -12.060400 22.291600 -0.000001 0.000005 -28.047500 5.194730 2.850350 12.994500 -0.242716 -4.980390 89.618900 1.492200 -75.669000 -5.348130 -0.000001 -0.000004 -65.415200 23.088100 -19.414500 -24.328900 0.000322 -0.000009 -0.170022 -1.284370 -7.488280 -22.291500 -0.000108 -0.000004 -19.304800 4.949560 8.376590 -2.192480 -6.469440 -0.000000 -172.955000 -7.932440 -3.683180 39.081100 -0.000007 -0.000012 -0.004462 0.015937 15.638300 40.985400 -0.000006 -0.000013 -1.764480 13.381100 -66.552300 11.754300 -0.000000 0.000003 -0.000264 0.171963 -9.601840 -2.192510 6.469440 -0.000001 178.682000 6.186010 177.610000 -39.081100 -0.002282 -0.040193 0.043925 -0.175567 13.018000 -40.985400 0.000008 0.000006 -3.257130 5.414520 -66.328900 -11.754300 -0.000006 -0.000006 -0.008530 0.259976 -6.014100
0.000000 0.000000 0.000000 0.000000 0.000000 -0.000000 -1.902900 93.412700 -4.365930 88.006900 0.085193 1.298610 15.735700 0.000005 -0.000001 96.968600 86.873800 -95.553800 8.984550 -0.406207 -0.000000 -1.566110 0.643240 2.837700 16.377300 -0.000001 -0.000001 -5.574990 0.108562 -1.127000 6.456720 -0.000001 -0.000000 -2.263270 -0.278110 -1.128490 12.994200 -0.242716 4.980390 -91.665200 5.831050 -74.031200 5.348090 -0.000007 -0.000001 -63.342100 19.073400 -19.767900 24.328600 0.000019 0.000005 5.396770 31.911400 -10.132700 22.291600 -0.000001 0.000005 -29.699600 5.157910 3.750010 12.994500 -0.242716 -4.980390 89.935900 0.244950 -75.316800 -5.348130 -0.000001 -0.000004 -63.004900 17.530100 -24.666500 -24.328900 0.000322 -0.000009 0.010533 0.115474 -5.833370 -22.291500 -0.000108 -0.000004 -19.623800 4.927160 8.831040 -2.192480 -6.469440 -0.000000 -173.045000 -7.772300 -3.469500 39.081100 -0.000007 -0.000012 -0.003783 0.013463 15.694600 40.985400 -0.000006 -0.000013 -1.677860 13.348800 -66.715700 11.754300 -0.000000 0.000003 -0.000192 0.170789 -9.649530 -2.192510 6.469440 -0.000001 178.525000 6.517620 177.867000 -39.081100 -0.002282 -0.040193 0.045802 -0.182259 13.116700 -40.985400 0.000008 0.000006 -3.164500 5.592140 -66.647000 -11.754300 -0.000006 -0.000006 -0.008452 0.259350 -6.039680
0.000000 0.000000 0.000000 0.000000 0.000000 -0.000000 -1.786660 93.369300 -3.800120 88.097700 0.236064 1.589150 15.735700 0.000005 -0.000001 98.207500 87.156300 -96.819000 8.984550 -0.406207 -0.000000 -2.143810 0.691665 2.789740 16.377300 -0.000001 -0.000001 -5.922510 0.091404 -1.180120 6.456720 -0.000001 -0.000000 -3.185160 -0.374719 -1.246330 12.994200 -0.242716 4.980390 -91.374000 4.642430 -73.492000 5.348090 -0.000007 -0.000001 -59.773500 13.497500 -25.948300 24.328600 0.000019 0.000005 4.386810 30.586500 -8.573190 22.291600 -0.000001 0.000005 -25.115900 5.120060 4.639920 12.994500 -0.242716 -4.980390 90.233200 -0.856860 -74.778300 -5.348130 -0.000001 -0.000004 -59.713700 11.516200 -30.401200 -24.328900 0.000322 -0.000009 0.099205 1.168710 -4.902130 -22.291500 -0.000108 -0.000004 -18.039000 4.925010 8.877200 -2.192480 -6.469440 -0.000000 -173.133000 -7.638040 -2.841590 39.081100 -0.000007 -0.000012 -0.004804 0.017044 15.739500 40.985400 -0.000006 -0.000013 -1.542220 13.359000 -66.964100 11.754300 -0.000000 0.000003 -0.000623 0.177527 -9.375810 -2.192510 6.469440 -0.000001 178.256000 6.679560 178.539000 -39.081100 -0.002282 -0.040193 0.045866 -0.181142 13.214000 -40.985400 0.000008 0.000006 -3.220690 5.670890 -67.018900 -11.754300 -0.000006 -0.000006 -0.008446 0.259303 -6.041610
0.000000 0.000000 0.000000 0.000000 0.000000 -0.000000 -1.644160 93.277500 -3.001640 88.186700 0.380591 2.242700 15.735700 0.000005 -0.000001 99.962900 87.375700 -98.583900 8.984550 -0.406207 -0.000000 -2.604580 0.783007 2.775720 16.377300 -0.000001 -0.000001 -6.246530 0.095099 -1.275140 6.456720 -0.000001 -0.000000 -3.702560 -0.427505 -1.446010 12.994200 -0.242716 4.980390 -91.065700 3.453400 -72.837300 5.348090 -0.000007 -0.000001 -56.405600 6.858550 -32.305600 24.328600 0.000019 0.000005 3.921130 28.892300 -8.074350 22.291600 -0.000001 0.000005 -18.810300 5.100320 5.099320 12.994500 -0.242716 -4.980390 90.589900 -2.080560 -74.170200 -5.348130 -0.000001 -0.000004 -56.915700 3.893280 -36.395800 -24.328900 0.000322 -0.000009 0.076400 1.126320 -3.931290 -22.291500 -0.000108 -0.000004 -15.653000 4.956900 8.226300 -2.192480 -6.469440 -0.000000 -173.125000 -7.976370 -1.826120 39.081100 -0.000007 -0.000012 -0.010761 0.037515 16.004900 40.985400 -0.000006 -0.000013 -1.283370 13.763300 -67.130100 11.754300 -0.000000 0.000003 -0.001197 0.185793 -9.039920 -2.192510 6.469440 -0.000001 177.940000 6.872720 179.628000 -39.081100 -0.002282 -0.040193 0.049190 -0.190624 13.526200 -40.985400 0.000008 0.000006 -3.015870 5.713810 -67.641900 -11.754300 -0.000006 -0.000006 -0.009158 0.264904 -5.812720
0.000000 0.000000 0.000000 0.000000 0.000000 -0.000000 -1.488210 93.191000 -2.067200 88.339800 0.679073 2.845590 15.735700 0.000005 -0.000001 101.573000 87.698400 -100.239000 8.984550 -0.406207 -0.000000 -3.264340 0.794698 2.691260 16.377300 -0.000001 -0.000001 -6.422200 0.109010 -1.447480 6.456720 -0.000001 -0.000000 -3.833750 -0.534548 -1.596620 12.994200 -0.242716 4.980390 -90.699600 2.168810 -72.115200 5.348090 -0.000007 -0.000001 -52.890900 0.029011 -38.726900 24.328600 0.000019 0.000005 3.608960 26.048400 -8.173170 22.291600 -0.000001 0.000005 -14.357800 5.099570 5.125380 12.994500 -0.242716 -4.980390 90.996900 -3.320550 -73.280900 -5.348130 -0.000001 -0.000004 -54.723500 -4.299110 -42.697800 -24.328900 0.000322 -0.000009 0.020534 0.378607 -3.259050 -22.291500 -0.000108 -0.000004 -12.889100 4.961830 8.122750 -2.192480 -6.469440 -0.000000 -173.190000 -8.125610 -0.637248 39.081100 -0.000007 -0.000012 -0.015410 0.053754 15.995600 40.985400 -0.000006 -0.000013 -1.035610 14.126500 -67.319900 11.754300 -0.000000 0.000003 -0.001911 0.195220 -8.656650 -2.192510 6.469440 -0.000001 177.472000 7.355250 -179.120000 -39.081100 -0.002282 -0.040193 0.048036 -0.184053 13.651800 -40.985400 0.000008 0.000006 -3.094360 5.928990 -68.179400 -11.754300 -0.000006 -0.000006 -0.010018 0.271436 -5.545630
